<?xml version="1.0" encoding="UTF-8"?>
<svg width="16px" height="7px" viewBox="0 0 16 7" version="1.1" xmlns="http://www.w3.org/2000/svg" xmlns:xlink="http://www.w3.org/1999/xlink">
    <!-- Generator: Sketch 44.1 (41455) - http://www.bohemiancoding.com/sketch -->
    <title>link</title>
    <desc>Created with Sketch.</desc>
    <defs>
        <path d="M4.5,9 C4.22385763,9 4,8.77614237 4,8.5 C4,8.22385763 4.22385763,8 4.5,8 L11.5,8 C11.7761424,8 12,8.22385763 12,8.5 C12,8.77614237 11.7761424,9 11.5,9 L4.5,9 Z M6.5,5 C6.77614237,5 7,5.22385763 7,5.5 C7,5.77614237 6.77614237,6 6.5,6 L3.5,6 C3.43220307,6 3.29513991,6.00979023 3.11344949,6.04007196 C2.80792362,6.09099294 2.50323484,6.18239957 2.2236068,6.3222136 C1.44989613,6.70906893 1,7.38391313 1,8.5 C1,9.61608687 1.44989613,10.2909311 2.2236068,10.6777864 C2.50323484,10.8176004 2.80792362,10.9090071 3.11344949,10.959928 C3.29513991,10.9902098 3.43220307,11 3.5,11 L6.5,11 C7.16666667,11 7.16666667,12 6.5,12 L3.5,12 C3.22385763,12 3,11.7761424 3,11.5 C3,11.2238576 3.22385763,11 3.5,11 L3.5,12 C3.05430637,12 2.42079583,11.8944149 1.7763932,11.5722136 C0.675103868,11.0215689 0,10.0089131 0,8.5 C0,6.99108687 0.675103868,5.97843107 1.7763932,5.4277864 C2.42079583,5.10558509 3.05430637,5 3.5,5 L6.5,5 Z M9.5,6 C9.22385763,6 9,5.77614237 9,5.5 C9,5.22385763 9.22385763,5 9.5,5 L12.5,5 C12.9456936,5 13.5792042,5.10558509 14.2236068,5.4277864 C15.3248961,5.97843107 16,6.99108687 16,8.5 C16,10.0089131 15.3248961,11.0215689 14.2236068,11.5722136 C13.5792042,11.8944149 12.9456936,12 12.5,12 L9.5,12 C9.22385763,12 9,11.7761424 9,11.5 C9,11.2238576 9.22385763,11 9.5,11 L12.5,11 C12.5677969,11 12.7048601,10.9902098 12.8865505,10.959928 C13.1920764,10.9090071 13.4967652,10.8176004 13.7763932,10.6777864 C14.5501039,10.2909311 15,9.61608687 15,8.5 C15,7.38391313 14.5501039,6.70906893 13.7763932,6.3222136 C13.4967652,6.18239957 13.1920764,6.09099294 12.8865505,6.04007196 C12.7048601,6.00979023 12.5677969,6 12.5,6 L9.5,6 Z" id="path-1"></path>
    </defs>
    <g id="Core-Style" stroke="none" stroke-width="1" fill="currentColor" fill-rule="evenodd">
        <g id="Iconography" transform="translate(-432.000000, -317.000000)">
            <g id="16px-Icons" transform="translate(128.000000, 254.000000)">
                <g id="16px-icons" transform="translate(16.000000, 58.000000)">
                    <g id="link" transform="translate(288.000000, 0.000000)">
                        <mask id="mask-2" fill="white">
                            <use xlink:href="#path-1"></use>
                        </mask>
                        <use fill="#000000" fill-rule="nonzero" xlink:href="#path-1"></use>
                        <g id="BG-icon-dark" mask="url(#mask-2)" fill-rule="evenodd" fill="#434A54">
                            <rect id="434A54" x="0" y="0" width="17" height="17"></rect>
                        </g>
                    </g>
                </g>
            </g>
        </g>
    </g>
</svg>
