<?xml version="1.0" encoding="UTF-8" standalone="no"?>
<svg width="209px" height="32px" viewBox="0 0 209 32" version="1.1" xmlns="http://www.w3.org/2000/svg" xmlns:xlink="http://www.w3.org/1999/xlink" xmlns:sketch="http://www.bohemiancoding.com/sketch/ns">
    <!-- Generator: Sketch 3.4.2 (15857) - http://www.bohemiancoding.com/sketch -->
    <title>Hapara LOGO</title>
    <desc>Created with Sketch.</desc>
    <defs></defs>
    <g id="Page-1" stroke="none" stroke-width="1" fill="none" fill-rule="evenodd" sketch:type="MSPage">
        <g id="Workspace_Public" sketch:type="MSArtboardGroup" transform="translate(-20.000000, -15.000000)">
            <g id="Header-Copy-2" sketch:type="MSLayerGroup" transform="translate(0.000000, -1.000000)">
                <g id="Hapara-LOGO" transform="translate(20.000000, 16.000000)" sketch:type="MSShapeGroup">
                    <path d="M56.853444,28.2642474 L56.853444,21.1325361 C56.853444,19.4814021 56.4381743,18.1281649 55.5150207,17.2110515 C54.6383402,16.3394639 53.2537759,15.8350515 51.3384232,15.8350515 C49.2926141,15.8350515 47.9697925,16.2068454 46.6436515,16.7772371 C47.1555187,17.5716289 47.6046473,18.409567 47.9820747,19.2857732 C48.8809959,18.9915052 49.7214938,18.8163299 50.8308714,18.8163299 C52.5845643,18.8163299 53.4844813,19.6189691 53.4844813,21.0635876 L53.4844813,21.2701031 C52.6074689,20.9718763 51.7075519,20.7653608 50.4617427,20.7653608 C47.5309544,20.7653608 45.4771784,22.0037938 45.4771784,24.6868454 L45.4771784,24.732701 C45.4771784,27.1637113 47.3925311,28.4935258 49.7231535,28.4935258 C51.4307054,28.4935258 52.6074689,27.8746392 53.4612448,26.934433 L53.4612448,28.2642474 L56.853444,28.2642474 L56.853444,28.2642474 Z M53.5306224,23.9300619 C53.5306224,25.1912577 52.4229046,26.0859381 50.7847303,26.0859381 C49.6541079,26.0859381 48.8693776,25.5353402 48.8693776,24.595134 L48.8693776,24.5492784 C48.8693776,23.4484124 49.7925311,22.8522887 51.2922822,22.8522887 C52.1460581,22.8522887 52.9307884,23.0357113 53.5306224,23.3108454 L53.5306224,23.9300619 Z M27.6418257,28.2642474 L27.6418257,21.1325361 C27.6418257,19.4814021 27.226556,18.1281649 26.3034025,17.2110515 C25.42639,16.3394639 24.0421577,15.8350515 22.126805,15.8350515 C20.0809959,15.8350515 18.7578423,16.2068454 17.4320332,16.7772371 C17.9439004,17.5716289 18.393029,18.409567 18.7704564,19.2857732 C19.6693776,18.9915052 20.5098755,18.8163299 21.6192531,18.8163299 C23.3729461,18.8163299 24.2728631,19.6189691 24.2728631,21.0635876 L24.2728631,21.2701031 C23.3958506,20.9718763 22.4959336,20.7653608 21.2497925,20.7653608 C18.3193361,20.7653608 16.2655602,22.0037938 16.2655602,24.6868454 L16.2655602,24.732701 C16.2655602,27.1637113 18.1809129,28.4935258 20.5115353,28.4935258 C22.2190871,28.4935258 23.3958506,27.8746392 24.2496266,26.934433 L24.2496266,28.2642474 L27.6418257,28.2642474 Z M24.3190041,23.9300619 C24.3190041,25.1912577 23.2112863,26.0859381 21.573112,26.0859381 C20.4421577,26.0859381 19.6577593,25.5353402 19.6577593,24.595134 L19.6577593,24.5492784 C19.6577593,23.4484124 20.5805809,22.8522887 22.0806639,22.8522887 C22.9344398,22.8522887 23.7188382,23.0357113 24.3190041,23.3108454 L24.3190041,23.9300619 Z M79.7580083,28.2642474 L79.7580083,21.1325361 C79.7580083,19.4814021 79.3427386,18.1281649 78.4195851,17.2110515 C77.5425726,16.3394639 76.1583402,15.8350515 74.2429876,15.8350515 C72.1971784,15.8350515 70.8740249,16.2068454 69.5482158,16.7772371 C70.060083,17.5716289 70.5092116,18.409567 70.886639,19.2857732 C71.7855602,18.9915052 72.6260581,18.8163299 73.7354357,18.8163299 C75.4891286,18.8163299 76.3890456,19.6189691 76.3890456,21.0635876 L76.3890456,21.2701031 C75.5120332,20.9718763 74.6121162,20.7653608 73.3659751,20.7653608 C70.4355187,20.7653608 68.3817427,22.0037938 68.3817427,24.6868454 L68.3817427,24.732701 C68.3817427,27.1637113 70.2970954,28.4935258 72.6277178,28.4935258 C74.3352697,28.4935258 75.5120332,27.8746392 76.3658091,26.934433 L76.3658091,28.2642474 L79.7580083,28.2642474 Z M76.4351867,23.9300619 C76.4351867,25.1912577 75.3274689,26.0859381 73.6892946,26.0859381 C72.5583402,26.0859381 71.7739419,25.5353402 71.7739419,24.595134 L71.7739419,24.5492784 C71.7739419,23.4484124 72.6970954,22.8522887 74.1968465,22.8522887 C75.0506224,22.8522887 75.8350207,23.0357113 76.4351867,23.3108454 L76.4351867,23.9300619 Z M0,28.2586392 L3.55352697,28.2586392 L3.55352697,21.8147629 L10.106888,21.8147629 L10.106888,28.2586392 L13.6604149,28.2586392 L13.6604149,12.2061856 L10.106888,12.2061856 L10.106888,18.5583505 L3.55352697,18.5583505 L3.55352697,12.2061856 L0,12.2061856 L0,28.2586392 Z M30.8282158,31.9280825 L34.3356017,31.9280825 L34.3356017,26.6533608 C35.1661411,27.6394227 36.32,28.4879175 38.1892116,28.4879175 C41.119668,28.4879175 43.8194191,26.2406598 43.8194191,22.1357526 L43.8194191,22.0898969 C43.8194191,17.9849897 41.073527,15.737732 38.1892116,15.737732 C36.3661411,15.737732 35.1893776,16.5862268 34.3356017,17.7326186 L34.3356017,15.9670103 L30.8282158,15.9670103 L30.8282158,31.9280825 L30.8282158,31.9280825 Z M37.2892946,25.529732 C35.6507884,25.529732 34.2894606,24.1768247 34.2894606,22.1357526 L34.2894606,22.0898969 C34.2894606,20.0488247 35.6507884,18.6959175 37.2892946,18.6959175 C38.9274689,18.6959175 40.3120332,20.0488247 40.3120332,22.0898969 L40.3120332,22.1357526 C40.3120332,24.1995876 38.9274689,25.529732 37.2892946,25.529732 L37.2892946,25.529732 Z M60.0640664,28.2586392 L63.5714523,28.2586392 L63.5714523,23.718268 C63.5714523,20.7828454 65.0021577,19.3837526 67.3327801,19.3837526 L67.5173444,19.3837526 L67.5173444,15.737732 C65.4406639,15.6460206 64.286805,16.7465567 63.5714523,18.4435464 L63.5714523,15.9670103 L60.0640664,15.9670103 L60.0640664,28.2586392 L60.0640664,28.2586392 Z" id="Lo" fill="#FFFFFF"></path>
                    <path d="M38.0577593,9.94276289 L41.2843154,1.0668866 L37.3301245,0 L35.5186722,9.26515464 C36.3893776,9.42812371 37.2371784,9.65542268 38.0577593,9.94276289" id="Fill-7" fill="#FFFFFF"></path>
                    <path d="M42.2585892,12.0230928 L46.5839004,6.09484536 L43.1654772,3.95876289 L39.8340249,10.6051959 C40.6818257,11.014268 41.493444,11.4873402 42.2585892,12.0230928" id="Fill-8" fill="#98C53D"></path>
                    <path d="M49.9555187,11.8244948 L47.5654772,9.2371134 L43.8174274,13.2529485 C44.4819917,13.8457732 45.1007469,14.4880825 45.6673859,15.1762474 L49.9555187,11.8244948" id="Fill-9" fill="#00B5D3"></path>
                    <path d="M33.2660581,8.95142268 L33.7643154,1.34169072 L29.8755187,1.31958763 L30.5925311,8.98969072 C30.9404149,8.95835052 31.2906224,8.93393814 31.6448133,8.92305155 C32.1908714,8.9065567 32.7312863,8.91843299 33.2660581,8.95142268" id="Fill-10" fill="#AB3BAF"></path>
                    <path d="M28.6828216,9.07480412 L27.4071369,3.29896907 L23.9004149,4.34243299 L26.1188382,9.81905155 C26.9447303,9.50828866 27.8008299,9.2588866 28.6828216,9.07480412" id="Fill-11" fill="#EA8B2D"></path>
                    <path d="M97.49,28.11 L98.942,28.11 L103.188,15.614 L107.412,28.11 L108.886,28.11 L114.386,12.6 L112.56,12.6 L108.16,25.426 L103.936,12.556 L102.506,12.556 L98.282,25.426 L93.882,12.6 L91.99,12.6 L97.49,28.11 Z" id="W" fill="#EA8B2D"></path>
                    <path d="M120.896,28.264 C124.328,28.264 126.858,25.536 126.858,22.324 L126.858,22.28 C126.858,19.068 124.35,16.384 120.94,16.384 C117.508,16.384 115,19.112 115,22.324 L115,22.368 C115,25.58 117.486,28.264 120.896,28.264 L120.896,28.264 Z M120.94,26.746 C118.542,26.746 116.738,24.766 116.738,22.324 L116.738,22.28 C116.738,19.882 118.432,17.88 120.896,17.88 C123.294,17.88 125.12,19.882 125.12,22.324 L125.12,22.368 C125.12,24.766 123.404,26.746 120.94,26.746 L120.94,26.746 Z M129.416,28 L131.11,28 L131.11,23.468 C131.11,20.036 133.134,18.254 135.62,18.254 L135.752,18.254 L135.752,16.428 C133.596,16.34 131.946,17.704 131.11,19.596 L131.11,16.626 L129.416,16.626 L129.416,28 Z M137.826,28 L139.52,28 L139.52,25.03 L141.83,22.698 L145.9,28 L147.924,28 L142.996,21.51 L147.77,16.626 L145.658,16.626 L139.52,23.028 L139.52,11.94 L137.826,11.94 L137.826,28 Z M153.606,28.22 C155.872,28.22 157.654,26.966 157.654,24.81 L157.654,24.766 C157.654,22.72 155.762,22.038 154.002,21.51 C152.484,21.048 151.076,20.63 151.076,19.552 L151.076,19.508 C151.076,18.562 151.934,17.858 153.276,17.858 C154.376,17.858 155.586,18.276 156.642,18.958 L157.412,17.682 C156.246,16.912 154.706,16.428 153.32,16.428 C151.076,16.428 149.448,17.726 149.448,19.684 L149.448,19.728 C149.448,21.818 151.428,22.434 153.21,22.94 C154.706,23.358 156.048,23.798 156.048,24.942 L156.048,24.986 C156.048,26.086 155.058,26.79 153.694,26.79 C152.352,26.79 150.988,26.262 149.756,25.338 L148.898,26.548 C150.174,27.582 151.978,28.22 153.606,28.22 L153.606,28.22 Z M160.3,31.52 L161.994,31.52 L161.994,25.822 C162.874,27.098 164.238,28.242 166.35,28.242 C169.1,28.242 171.784,26.042 171.784,22.324 L171.784,22.28 C171.784,18.54 169.078,16.384 166.35,16.384 C164.26,16.384 162.918,17.55 161.994,18.914 L161.994,16.626 L160.3,16.626 L160.3,31.52 Z M166.042,26.724 C163.93,26.724 161.928,24.964 161.928,22.324 L161.928,22.28 C161.928,19.684 163.93,17.902 166.042,17.902 C168.198,17.902 170.046,19.618 170.046,22.302 L170.046,22.346 C170.046,25.096 168.242,26.724 166.042,26.724 L166.042,26.724 Z M177.796,28.242 C179.798,28.242 181.096,27.318 181.888,26.306 L181.888,28 L183.56,28 L183.56,21.048 C183.56,19.596 183.164,18.496 182.372,17.704 C181.558,16.89 180.304,16.45 178.698,16.45 C177.026,16.45 175.816,16.846 174.562,17.418 L175.068,18.804 C176.124,18.32 177.18,17.99 178.522,17.99 C180.656,17.99 181.888,19.046 181.888,21.07 L181.888,21.422 C180.876,21.136 179.864,20.938 178.412,20.938 C175.53,20.938 173.55,22.214 173.55,24.656 L173.55,24.7 C173.55,27.032 175.662,28.242 177.796,28.242 L177.796,28.242 Z M178.126,26.878 C176.586,26.878 175.266,26.042 175.266,24.612 L175.266,24.568 C175.266,23.204 176.476,22.28 178.588,22.28 C179.974,22.28 181.074,22.522 181.91,22.764 L181.91,23.82 C181.91,25.624 180.216,26.878 178.126,26.878 L178.126,26.878 Z M191.772,28.264 C193.906,28.264 195.27,27.34 196.414,26.064 L195.336,25.052 C194.434,26.02 193.312,26.746 191.86,26.746 C189.484,26.746 187.68,24.788 187.68,22.324 L187.68,22.28 C187.68,19.838 189.44,17.88 191.75,17.88 C193.29,17.88 194.302,18.65 195.204,19.596 L196.326,18.408 C195.27,17.286 193.928,16.384 191.772,16.384 C188.45,16.384 185.942,19.112 185.942,22.324 L185.942,22.368 C185.942,25.558 188.45,28.264 191.772,28.264 L191.772,28.264 Z M199.72,23.006 L208.74,23.006 C208.762,22.742 208.762,22.566 208.762,22.412 C208.762,19.068 206.826,16.384 203.46,16.384 C200.314,16.384 198.004,19.024 198.004,22.324 C198.004,25.866 200.556,28.264 203.68,28.264 C205.836,28.264 207.222,27.406 208.366,26.13 L207.31,25.184 C206.386,26.152 205.286,26.79 203.724,26.79 C201.722,26.79 199.962,25.404 199.72,23.006 L199.72,23.006 Z M199.72,21.642 C199.962,19.442 201.458,17.814 203.416,17.814 C205.66,17.814 206.848,19.574 207.046,21.642 L199.72,21.642 Z" id="orkspace" fill="#EA8B2D"></path>
                </g>
            </g>
        </g>
    </g>
</svg>